<?xml version="1.0" encoding="iso-8859-1"?>
<!-- Generator: Adobe Illustrator 19.0.0, SVG Export Plug-In . SVG Version: 6.00 Build 0)  -->
<svg version="1.1" id="Capa_1" xmlns="http://www.w3.org/2000/svg" xmlns:xlink="http://www.w3.org/1999/xlink" x="0px" y="0px"
	 viewBox="0 0 508 508" style="enable-background:new 0 0 508 508;" xml:space="preserve">
<g>
	<g>
		<path d="M254,0C113.9,0,0,113.9,0,254s113.9,254,254,254s254-113.9,254-254S394.1,0,254,0z M254,479.8
			C129.5,479.8,28.2,378.5,28.2,254S129.5,28.2,254,28.2S479.8,129.5,479.8,254S378.5,479.8,254,479.8z"/>
	</g>
</g>
<g>
	<g>
		<path d="M210.5,190.2c-23.3,0-42.3,19-42.3,42.3s19,42.3,42.3,42.3s42.3-19,42.3-42.3C252.8,209.2,233.8,190.2,210.5,190.2z
			 M210.5,246.7c-7.8,0-14.1-6.3-14.1-14.1s6.3-14.1,14.1-14.1s14.1,6.3,14.1,14.1S218.2,246.7,210.5,246.7z"/>
	</g>
</g>
<g>
	<g>
		<path d="M105.3,176.9c-23.3,0-42.3,19-42.3,42.3c0,23.3,19,42.3,42.3,42.3c23.3,0,42.3-19,42.3-42.3
			C147.6,195.9,128.6,176.9,105.3,176.9z M105.3,233.3c-7.8,0-14.1-6.3-14.1-14.1c0-7.8,6.3-14.1,14.1-14.1
			c7.8,0,14.1,6.3,14.1,14.1C119.4,227,113,233.3,105.3,233.3z"/>
	</g>
</g>
<g>
	<g>
		<path d="M168.4,97.4c-23.3,0-42.3,19-42.3,42.3c0,23.3,19,42.3,42.3,42.3s42.3-19,42.3-42.3C210.7,116.4,191.7,97.4,168.4,97.4z
			 M168.4,153.8c-7.8,0-14.1-6.3-14.1-14.1c0-7.8,6.4-14.1,14.1-14.1c7.8,0,14.1,6.3,14.1,14.1C182.5,147.5,176.2,153.8,168.4,153.8
			z"/>
	</g>
</g>
<g>
</g>
<g>
</g>
<g>
</g>
<g>
</g>
<g>
</g>
<g>
</g>
<g>
</g>
<g>
</g>
<g>
</g>
<g>
</g>
<g>
</g>
<g>
</g>
<g>
</g>
<g>
</g>
<g>
</g>
</svg>
