<?xml version="1.0" encoding="iso-8859-1"?>
<!-- Generator: Adobe Illustrator 18.1.1, SVG Export Plug-In . SVG Version: 6.00 Build 0)  -->
<svg version="1.1" id="Capa_1" xmlns="http://www.w3.org/2000/svg" xmlns:xlink="http://www.w3.org/1999/xlink" x="0px" y="0px"
	 viewBox="0 0 40.613 40.613" style="enable-background:new 0 0 40.613 40.613;" xml:space="preserve">
<g>
	<g>
		<path style="fill:#010002;" d="M20.308,0C9.09,0,0,9.09,0,20.306c0,11.215,9.09,20.307,20.308,20.307
			c11.215,0,20.305-9.092,20.305-20.307C40.613,9.09,31.523,0,20.308,0z M15.277,18.788c-1.683,0-3.048-1.364-3.048-3.049
			c0-1.682,1.365-3.047,3.048-3.047s3.051,1.365,3.051,3.047C18.328,17.424,16.96,18.788,15.277,18.788z M18.328,9.206
			c0-1.975,1.597-3.574,3.572-3.574s3.574,1.599,3.574,3.574c0,1.973-1.6,3.572-3.574,3.572
			C19.925,12.778,18.328,11.179,18.328,9.206z M24.957,23.171c-2.025,0-3.674-1.646-3.674-3.673s1.648-3.669,3.674-3.669
			c2.029,0,3.672,1.642,3.672,3.669S26.986,23.171,24.957,23.171z"/>
	</g>
</g>
<g>
</g>
<g>
</g>
<g>
</g>
<g>
</g>
<g>
</g>
<g>
</g>
<g>
</g>
<g>
</g>
<g>
</g>
<g>
</g>
<g>
</g>
<g>
</g>
<g>
</g>
<g>
</g>
<g>
</g>
</svg>
