<?xml version="1.0" encoding="iso-8859-1"?>
<!-- Generator: Adobe Illustrator 19.0.0, SVG Export Plug-In . SVG Version: 6.00 Build 0)  -->
<svg version="1.1" id="Capa_1" xmlns="http://www.w3.org/2000/svg" xmlns:xlink="http://www.w3.org/1999/xlink" x="0px" y="0px"
	 viewBox="0 0 512.097 512.097" style="enable-background:new 0 0 512.097 512.097;" xml:space="preserve">
<g transform="translate(-1)">
	<g>
		<g>
			<path d="M485.182,239.298c-6.525-11.212-11.154-19.879-15.05-28.175c-2.542-5.263-4.554-9.95-6.204-14.458
				c-0.879-2.279-1.671-4.517-2.442-6.683l-0.946-2.638c-2.734-7.885-5.057-15.907-6.958-24.033
				c-0.958-3.917-1.654-7.5-2.321-10.933l-0.196-0.987c-0.604-3.662-0.937-7.364-0.996-11.075
				c-0.277-14.603,2.539-29.1,8.263-42.537c3.908-10.013,5.883-20.676,5.821-31.425c0-37.179-21.629-66.304-49.237-66.304
				s-49.237,29.125-49.237,66.304c-0.061,10.765,1.92,21.444,5.838,31.471c5.725,13.457,8.534,27.974,8.242,42.596
				c-0.057,3.597-0.374,7.186-0.95,10.737l-0.237,1.221c-0.667,3.433-1.362,7.017-2.354,11.075
				c-1.88,8.026-4.174,15.949-6.871,23.738l-1,2.792c-0.771,2.167-1.563,4.404-2.487,6.813c-1.143,3.12-2.586,6.495-4.194,10.037
				c-18.478-14.402-39.733-24.828-62.432-30.625c-1.279-4.382-2.564-8.772-3.516-12.896c-0.958-3.917-1.654-7.5-2.321-10.933
				l-0.196-0.987c-0.604-3.662-0.937-7.364-0.996-11.075c-0.277-14.603,2.539-29.1,8.263-42.537
				c3.908-10.013,5.883-20.677,5.82-31.425c0-37.179-21.629-66.304-49.237-66.304c-27.608,0-49.237,29.125-49.237,66.304
				c-0.061,10.765,1.92,21.444,5.837,31.471c5.725,13.457,8.534,27.974,8.242,42.596c-0.057,3.597-0.374,7.186-0.95,10.737
				l-0.237,1.221c-0.667,3.433-1.362,7.017-2.35,11.046c-0.934,4.057-2.108,8.364-3.392,12.759
				c-22.734,5.792-44.022,16.227-62.526,30.648c-1.609-3.547-3.062-6.946-4.241-10.166c-0.879-2.279-1.671-4.517-2.442-6.683
				l-0.946-2.637c-2.734-7.885-5.057-15.907-6.958-24.033c-0.958-3.917-1.654-7.5-2.321-10.933l-0.196-0.987
				c-0.604-3.662-0.937-7.364-0.996-11.075c-0.277-14.603,2.539-29.1,8.263-42.537c3.908-10.013,5.883-20.676,5.821-31.425
				c0-37.179-21.629-66.304-49.237-66.304c-27.608,0-49.237,29.125-49.237,66.304c-0.061,10.765,1.92,21.444,5.837,31.471
				c5.725,13.457,8.534,27.974,8.242,42.596c-0.057,3.597-0.374,7.186-0.95,10.737l-0.237,1.221
				c-0.667,3.433-1.363,7.017-2.354,11.075c-1.88,8.026-4.174,15.949-6.871,23.738l-1,2.792c-0.771,2.167-1.563,4.404-2.487,6.813
				c-1.604,4.379-3.617,9.067-6.196,14.408c-3.858,8.217-8.488,16.883-15.021,28.108C9.823,274.848,0.228,314.707,1.049,355.036
				c0,70.208,26.171,132.829,65.125,155.829c1.314,0.775,2.812,1.184,4.337,1.183h57.342c1.524,0,3.021-0.408,4.333-1.183
				c11.631-7.236,21.638-16.8,29.394-28.09c57.662,39.031,133.276,39.031,190.937,0c7.756,11.291,17.763,20.854,29.394,28.09
				c1.313,0.775,2.809,1.184,4.333,1.183h57.342c1.526,0,3.023-0.408,4.337-1.183c38.954-23,65.125-85.621,65.125-155.829
				C513.869,314.702,504.271,274.839,485.182,239.298z M257.049,17.115c17.438,0,32.171,22.55,32.171,49.237
				c0.067,8.554-1.484,17.043-4.571,25.021c-6.616,15.611-9.856,32.444-9.508,49.396c0.083,4.579,0.507,9.146,1.267,13.662
				l0.237,1.208c0.713,3.679,1.467,7.525,2.467,11.617c0.393,1.703,0.875,3.494,1.325,5.254c-7.745-1.135-15.56-1.734-23.388-1.795
				c-7.828,0.061-15.643,0.661-23.388,1.796c0.441-1.724,0.916-3.49,1.297-5.142c1.029-4.204,1.783-8.05,2.496-11.729l0.279-1.442
				c0.732-4.406,1.14-8.859,1.221-13.325c0.363-16.97-2.871-33.824-9.488-49.454c-3.096-7.992-4.652-16.497-4.587-25.067
				C224.878,39.665,239.611,17.115,257.049,17.115z M125.436,494.982H72.928c-32.375-20.779-54.813-77.796-54.813-139.946
				c-0.827-37.319,7.972-74.223,25.55-107.154c6.788-11.663,11.633-20.738,15.675-29.342c2.783-5.775,5.013-10.971,6.763-15.75
				c0.929-2.421,1.771-4.792,2.587-7.092l1.025-2.871c2.898-8.353,5.359-16.85,7.375-25.458c1.029-4.204,1.784-8.05,2.496-11.729
				l0.279-1.442c0.732-4.406,1.14-8.859,1.221-13.325c0.363-16.97-2.87-33.824-9.488-49.454c-3.096-7.992-4.652-16.497-4.587-25.067
				c0-26.687,14.733-49.237,32.171-49.237c17.438,0,32.171,22.55,32.171,49.237c0.067,8.554-1.484,17.043-4.571,25.021
				c-6.616,15.611-9.856,32.444-9.508,49.396c0.083,4.579,0.507,9.146,1.267,13.662l0.237,1.208
				c0.713,3.679,1.467,7.525,2.462,11.588c2.037,8.709,4.528,17.305,7.463,25.754l0.971,2.717c0.817,2.3,1.658,4.671,2.542,6.963
				c1.789,4.89,4.011,10.067,6.763,15.779c-35.111,33.558-54.211,80.519-52.49,129.058c1.721,48.538,24.099,94.029,61.498,125.016
				C141.93,481.338,134.283,488.957,125.436,494.982z M257.049,494.982c-84.791-0.096-153.505-68.809-153.6-153.6
				c0-84.831,68.769-153.6,153.6-153.6s153.6,68.769,153.6,153.6S341.879,494.982,257.049,494.982z M495.982,355.036
				c0,62.15-22.437,119.167-54.813,139.946h-52.508c-8.847-6.025-16.494-13.644-22.551-22.469
				c37.399-30.987,59.777-76.477,61.498-125.016c1.721-48.538-17.378-95.499-52.489-129.057c2.76-5.734,4.977-10.9,6.717-15.65
				c0.929-2.421,1.771-4.792,2.588-7.092l1.025-2.871c2.898-8.353,5.36-16.85,7.375-25.458c1.029-4.204,1.783-8.05,2.496-11.729
				l0.279-1.442c0.732-4.406,1.14-8.859,1.221-13.325c0.363-16.97-2.87-33.824-9.488-49.454c-3.096-7.992-4.652-16.497-4.587-25.067
				c0-26.687,14.733-49.237,32.171-49.237c17.438,0,32.171,22.55,32.171,49.237c0.067,8.554-1.484,17.043-4.571,25.021
				c-6.616,15.611-9.856,32.444-9.508,49.396c0.083,4.579,0.507,9.146,1.267,13.662l0.237,1.208
				c0.713,3.679,1.467,7.525,2.462,11.588c2.037,8.709,4.528,17.305,7.462,25.754l0.971,2.717c0.817,2.3,1.658,4.671,2.542,6.963
				c1.796,4.908,4.025,10.104,6.771,15.8c4.079,8.683,8.925,17.758,15.704,29.408C488.006,280.803,496.809,317.712,495.982,355.036z
				"/>
			<path d="M325.315,251.782c0-16.495-13.372-29.867-29.867-29.867s-29.867,13.372-29.867,29.867
				c0,16.495,13.372,29.867,29.867,29.867C311.935,281.629,325.295,268.269,325.315,251.782z M295.449,264.582
				c-7.069,0-12.8-5.731-12.8-12.8c0-7.069,5.731-12.8,12.8-12.8c7.069,0,12.8,5.731,12.8,12.8
				C308.241,258.848,302.515,264.574,295.449,264.582z"/>
			<path d="M252.782,290.182c-16.495,0-29.867,13.372-29.867,29.867c0,16.495,13.372,29.867,29.867,29.867
				s29.867-13.372,29.867-29.867C282.629,303.562,269.269,290.202,252.782,290.182z M252.782,332.849c-7.069,0-12.8-5.731-12.8-12.8
				c0-7.069,5.731-12.8,12.8-12.8c7.069,0,12.8,5.731,12.8,12.8C265.574,327.115,259.848,332.841,252.782,332.849z"/>
			<path d="M338.115,290.182c-16.495,0-29.867,13.372-29.867,29.867c0,16.495,13.372,29.867,29.867,29.867
				c16.495,0,29.867-13.372,29.867-29.867C367.962,303.562,354.602,290.202,338.115,290.182z M338.115,332.849
				c-7.069,0-12.8-5.731-12.8-12.8c0-7.069,5.731-12.8,12.8-12.8c7.069,0,12.8,5.731,12.8,12.8
				C350.908,327.115,345.181,332.841,338.115,332.849z"/>
		</g>
	</g>
</g>
<g>
</g>
<g>
</g>
<g>
</g>
<g>
</g>
<g>
</g>
<g>
</g>
<g>
</g>
<g>
</g>
<g>
</g>
<g>
</g>
<g>
</g>
<g>
</g>
<g>
</g>
<g>
</g>
<g>
</g>
</svg>
