<?xml version="1.0" encoding="iso-8859-1"?>
<!-- Generator: Adobe Illustrator 19.0.0, SVG Export Plug-In . SVG Version: 6.00 Build 0)  -->
<svg version="1.1" id="Layer_1" xmlns="http://www.w3.org/2000/svg" xmlns:xlink="http://www.w3.org/1999/xlink" x="0px" y="0px"
	 viewBox="0 0 512 512" style="enable-background:new 0 0 512 512;" xml:space="preserve">
<g>
	<g>
		<g>
			<path d="M128.256,51.2h-0.094c-4.702,0-8.482,3.823-8.482,8.533s3.857,8.533,8.576,8.533c4.71,0,8.533-3.823,8.533-8.533
				S132.966,51.2,128.256,51.2z"/>
			<path d="M162.133,494.933H64.546c-7.415-13.047-30.413-59.051-30.413-128c0-46.182,15.744-79.633,29.636-109.141
				c5.726-12.169,11.264-23.996,15.3-35.925h40.397c4.71,0,8.533-3.823,8.533-8.533c0-4.71-3.823-8.533-8.533-8.533H83.635
				c1.067-5.606,1.698-11.273,1.698-17.067c0-6.127-0.154-11.767-0.393-17.067h34.526c4.71,0,8.533-3.823,8.533-8.533
				c0-4.71-3.823-8.533-8.533-8.533h-35.78c-2.202-21.154-6.281-34.978-9.771-46.805c-3.157-10.701-5.649-19.149-5.649-29.995
				c0-24.328,18.338-42.667,42.667-42.667c24.721,0,42.667,17.946,42.667,42.667c0,10.752-2.483,19.183-5.632,29.858
				c-5.094,17.289-11.435,38.801-11.435,81.075c0,26.197,7.697,44.757,14.165,55.714c2.389,4.053,7.62,5.41,11.682,3.012
				c4.062-2.389,5.41-7.62,3.021-11.682c-7.612-12.902-11.802-29.611-11.802-47.044c0-39.808,5.956-60.015,10.743-76.254
				c3.388-11.52,6.323-21.47,6.323-34.68c0-34.057-25.685-59.733-59.733-59.733C76.877,17.067,51.2,42.743,51.2,76.8
				c0,13.303,2.935,23.279,6.34,34.816c4.779,16.205,10.726,36.361,10.726,76.117c0,20.446-9.242,40.064-19.934,62.788
				c-14.66,31.13-31.266,66.415-31.266,116.412c0,86.921,34.116,139.085,35.567,141.269c1.579,2.372,4.25,3.797,7.1,3.797h102.4
				c4.71,0,8.533-3.823,8.533-8.533S166.844,494.933,162.133,494.933z"/>
			<path d="M321.818,232.986c-12.416-22.622-23.151-42.163-23.151-62.319c0-39.808,5.956-60.015,10.743-76.254
				c3.388-11.52,6.323-21.47,6.323-34.679C315.733,25.677,290.048,0,256,0c-34.057,0-59.733,25.677-59.733,59.733
				c0,13.303,2.935,23.279,6.34,34.816c4.779,16.205,10.726,36.361,10.726,76.117c0,20.156-10.735,39.697-23.151,62.319
				C173.03,264.201,153.6,299.588,153.6,349.867c0,86.357,33.596,154.556,35.029,157.414c1.493,2.987,4.514,4.719,7.637,4.719
				c1.28,0,2.577-0.29,3.806-0.896c4.215-2.108,5.922-7.236,3.823-11.452c-0.333-0.666-33.229-67.618-33.229-149.786
				c0-45.892,18.313-79.249,34.475-108.663c6.767-12.331,13.286-24.294,18.031-36.403h41.361c4.71,0,8.533-3.823,8.533-8.533
				s-3.823-8.533-8.533-8.533h-36.087c1.22-5.598,1.954-11.264,1.954-17.067c0-6.127-0.154-11.767-0.393-17.067h34.526
				c4.71,0,8.533-3.823,8.533-8.533c0-4.71-3.823-8.533-8.533-8.533h-35.78c-2.202-21.154-6.281-34.978-9.771-46.805
				c-3.157-10.701-5.649-19.149-5.649-29.995c0-24.329,18.338-42.667,42.667-42.667c24.721,0,42.667,17.946,42.667,42.667
				c0,10.752-2.483,19.183-5.632,29.858c-5.094,17.289-11.435,38.801-11.435,81.075c0,24.533,12.262,46.882,25.259,70.537
				c16.154,29.414,34.475,62.771,34.475,108.663c0,69.683-23.663,128.41-31.061,145.067H230.4c-4.719,0-8.533,3.823-8.533,8.533
				S225.681,512,230.4,512h85.333c3.234,0,6.178-1.826,7.629-4.719c1.434-2.859,35.038-71.057,35.038-157.414
				C358.4,299.588,338.961,264.201,321.818,232.986z"/>
			<path d="M463.667,250.522c-10.692-22.724-19.934-42.342-19.934-62.788c0-39.808,5.956-60.015,10.743-76.254
				c3.388-11.52,6.323-21.47,6.323-34.68c0-34.057-25.685-59.733-59.733-59.733c-34.057,0-59.733,25.677-59.733,59.733
				c0,13.303,2.935,23.279,6.34,34.816c4.779,16.205,10.726,36.361,10.726,76.117c0,11.298-3.319,23.253-10.761,38.758
				c-2.039,4.25-0.247,9.344,4.002,11.383c4.267,2.065,9.344,0.239,11.383-4.002c2.014-4.198,3.721-8.166,5.222-12.006H409.6
				c4.71,0,8.533-3.823,8.533-8.533c0-4.71-3.823-8.533-8.533-8.533h-36.198c1.271-5.854,2.065-11.511,2.065-17.067
				c0-6.127-0.154-11.767-0.393-17.067H409.6c4.71,0,8.533-3.823,8.533-8.533c0-4.71-3.823-8.533-8.533-8.533h-35.78
				c-2.202-21.154-6.281-34.978-9.771-46.805C360.892,96.094,358.4,87.646,358.4,76.8c0-24.328,18.338-42.667,42.667-42.667
				c24.721,0,42.667,17.946,42.667,42.667c0,10.752-2.483,19.183-5.632,29.858c-5.094,17.289-11.435,38.801-11.435,81.075
				c0,24.26,10.47,46.507,21.555,70.059c13.892,29.508,29.645,62.959,29.645,109.141c0,68.659-23.023,114.884-30.438,128h-97.562
				c-4.719,0-8.533,3.823-8.533,8.533s3.814,8.533,8.533,8.533h102.4c2.85,0,5.513-1.425,7.1-3.797
				c1.451-2.185,35.567-54.349,35.567-141.269C494.933,316.937,478.319,281.651,463.667,250.522z"/>
			<path d="M273.323,34.133h-0.094c-4.71,0-8.482,3.823-8.482,8.533c0,4.71,3.857,8.533,8.576,8.533c4.71,0,8.533-3.823,8.533-8.533
				C281.856,37.956,278.033,34.133,273.323,34.133z"/>
			<path d="M418.389,51.2h-0.094c-4.702,0-8.482,3.823-8.482,8.533s3.857,8.533,8.576,8.533c4.71,0,8.533-3.823,8.533-8.533
				S423.1,51.2,418.389,51.2z"/>
		</g>
	</g>
</g>
<g>
</g>
<g>
</g>
<g>
</g>
<g>
</g>
<g>
</g>
<g>
</g>
<g>
</g>
<g>
</g>
<g>
</g>
<g>
</g>
<g>
</g>
<g>
</g>
<g>
</g>
<g>
</g>
<g>
</g>
</svg>
